<svg width="800" height="500" viewBox="0 0 800 500" fill="none" xmlns="http://www.w3.org/2000/svg">
  <rect width="800" height="500" rx="36" fill="url(#bg)"/>
  <rect x="74" y="160" width="192" height="150" rx="28" fill="#143B5D"/>
  <rect x="104" y="188" width="132" height="16" rx="8" fill="#DBEEF4" fill-opacity="0.86"/>
  <rect x="104" y="220" width="132" height="16" rx="8" fill="#DBEEF4" fill-opacity="0.58"/>
  <rect x="104" y="252" width="96" height="16" rx="8" fill="#DBEEF4" fill-opacity="0.44"/>
  <path d="M271 234H438" stroke="#D95D39" stroke-width="18" stroke-linecap="round"/>
  <path d="M421 205L469 234L421 263" fill="#D95D39"/>
  <rect x="450" y="170" width="110" height="126" rx="30" fill="#F4C5B3"/>
  <path d="M465 321H726" stroke="#127475" stroke-width="18" stroke-linecap="round"/>
  <path d="M694 292L742 321L694 350" fill="#127475"/>
  <path d="M615 185H702L730 215V344H587V215L615 185Z" fill="#FDF5E8"/>
  <path d="M611 230H705" stroke="#143B5D" stroke-width="12" stroke-linecap="round"/>
  <path d="M633 344V284H684V344" fill="#BDE7EF"/>
  <rect x="640" y="250" width="34" height="34" rx="8" fill="#7AD3E0"/>
  <text x="82" y="138" fill="#143B5D" font-family="Arial, sans-serif" font-size="28" font-weight="700">Server heat</text>
  <text x="436" y="138" fill="#143B5D" font-family="Arial, sans-serif" font-size="28" font-weight="700">Capture loop</text>
  <text x="572" y="387" fill="#143B5D" font-family="Arial, sans-serif" font-size="28" font-weight="700">Nearby homes</text>
  <defs>
    <linearGradient id="bg" x1="45" y1="43" x2="725" y2="468" gradientUnits="userSpaceOnUse">
      <stop stop-color="#FFF7ED"/>
      <stop offset="1" stop-color="#E9F7F7"/>
    </linearGradient>
  </defs>
</svg>
